<?xml version="1.0" encoding="utf-8" ?>
<svg baseProfile="full" height="100%" version="1.1" viewBox="-248.0,-248.0,496,496" width="100%" xmlns="http://www.w3.org/2000/svg" xmlns:ev="http://www.w3.org/2001/xml-events" xmlns:xlink="http://www.w3.org/1999/xlink"><defs /><path d="M 36.37306695894641 -21.000000000000018 C 57.373066958946396 15.373066958946414 52.0 51.99999999999999 3.184081677783118e-15 52.0" fill="none" stroke="#1cd9c0" stroke-width="0.5" /><path d="M 67.54998149518619 -39.000000000000036 C 106.54998149518616 28.549981495186195 52.0 51.99999999999999 3.184081677783118e-15 52.0" fill="none" stroke="#fdd608" stroke-width="0.5" /><path d="M 98.72689603142598 -57.00000000000005 C 155.72689603142595 41.72689603142597 52.0 51.99999999999999 3.184081677783118e-15 52.0" fill="none" stroke="#9096d5" stroke-width="0.5" /><path d="M 128.17175976009688 -74.00000000000007 C 202.17175976009685 54.17175976009686 52.0 51.99999999999999 3.184081677783118e-15 52.0" fill="none" stroke="#f78381" stroke-width="0.5" /><path d="M 157.61662348876777 -91.00000000000009 C 248.61662348876771 66.61662348876777 52.0 51.99999999999999 3.184081677783118e-15 52.0" fill="none" stroke="#fdd608" stroke-width="0.5" /><path d="M 187.0614872174387 -108.0000000000001 C 295.06148721743864 79.06148721743868 52.0 51.99999999999999 3.184081677783118e-15 52.0" fill="none" stroke="#68bcdc" stroke-width="0.5" /><path d="M 3.184081677783118e-15 52.0 C -52.0 52.00000000000001 -64.20319397786861 17.20319397786862 -40.703193977868615 -23.500000000000004" fill="none" stroke="#ff8400" stroke-width="0.5" /><path d="M 3.184081677783118e-15 52.0 C -52.0 52.00000000000001 -57.37306695894641 15.37306695894642 -36.373066958946424 -21.000000000000004" fill="none" stroke="#ff8400" stroke-width="0.5" /><path d="M 3.184081677783118e-15 52.0 C -52.0 52.00000000000001 -112.01408311032395 30.014083110323973 -71.01408311032397 -41.00000000000001" fill="none" stroke="#49afd9" stroke-width="0.5" /><path d="M 3.184081677783118e-15 52.0 C -52.0 52.00000000000001 -129.77241335952164 34.77241335952167 -82.27241335952166 -47.50000000000001" fill="none" stroke="#49afd9" stroke-width="0.5" /><path d="M 3.184081677783118e-15 52.0 C -52.0 52.00000000000001 -117.47818472546169 31.478184725461723 -74.47818472546172 -43.00000000000001" fill="none" stroke="#49afd9" stroke-width="0.5" /><path d="M 3.184081677783118e-15 52.0 C -52.0 52.00000000000001 -122.94228634059945 32.94228634059947 -77.94228634059948 -45.00000000000001" fill="none" stroke="#49afd9" stroke-width="0.5" /><path d="M -36.373066958946424 -21.000000000000004 C -15.37306695894642 -57.373066958946424 15.373066958946392 -57.373066958946424 36.37306695894641 -21.000000000000018" fill="none" stroke="#ff8400" stroke-width="0.5" /><path d="M -40.703193977868615 -23.500000000000004 C -17.20319397786861 -64.20319397786862 28.549981495186152 -106.54998149518622 67.54998149518619 -39.000000000000036" fill="none" stroke="#ff8400" stroke-width="0.5" /><path d="M -40.703193977868615 -23.500000000000004 C -17.20319397786861 -64.20319397786862 66.61662348876769 -248.61662348876786 157.61662348876777 -91.00000000000009" fill="none" stroke="#ff8400" stroke-width="0.5" /><path d="M -74.47818472546172 -43.00000000000001 C -31.47818472546171 -117.47818472546172 28.549981495186152 -106.54998149518622 67.54998149518619 -39.000000000000036" fill="none" stroke="#49afd9" stroke-width="0.5" /><path d="M -77.94228634059948 -45.00000000000001 C -32.94228634059947 -122.94228634059948 28.549981495186152 -106.54998149518622 67.54998149518619 -39.000000000000036" fill="none" stroke="#49afd9" stroke-width="0.5" /><path d="M -82.27241335952166 -47.50000000000001 C -34.77241335952166 -129.77241335952166 41.72689603142593 -155.72689603142604 98.72689603142598 -57.00000000000005" fill="none" stroke="#49afd9" stroke-width="0.5" /><path d="M -82.27241335952166 -47.50000000000001 C -34.77241335952166 -129.77241335952166 54.171759760096805 -202.17175976009696 128.17175976009688 -74.00000000000007" fill="none" stroke="#49afd9" stroke-width="0.5" /><path d="M -71.01408311032397 -41.00000000000001 C -30.01408311032396 -112.01408311032398 79.0614872174386 -295.0614872174388 187.0614872174387 -108.0000000000001" fill="none" stroke="#49afd9" stroke-width="0.5" /><g><line stroke="#b2df8a" stroke-width="1.1" x1="2.4492935982947065e-15" x2="3.91886975727153e-15" y1="40.0" y2="64.0" /><g><circle cx="3.184081677783118e-15" cy="52.0" fill="blue" fill-opacity="0.7" r="12" stroke="blue" stroke-width="0.1" /><text text-anchor="middle" transform="translate(3.184081677783118e-15, 52.0) scale(0.6) rotate(0)">TL001 "Rabanuculus" (UNAM-LANCIS) k=12</text></g></g><g><line stroke="#ff8400" stroke-width="1.1" x1="-34.64101615137754" x2="-43.30127018922193" y1="-20.000000000000004" y2="-25.000000000000007" /><g><circle cx="-36.373066958946424" cy="-21.000000000000004" fill="#ff8400" fill-opacity="0.7" r="2" stroke="#ff8400" stroke-width="0.1" /></g><g><circle cx="-40.703193977868615" cy="-23.500000000000004" fill="#ff8400" fill-opacity="0.7" r="3" stroke="#ff8400" stroke-width="0.1" /><text text-anchor="middle" transform="translate(-40.703193977868615, -23.500000000000004) scale(0.35) rotate(300)">UNAM-LANCIS k=3</text></g></g><g><line stroke="#ad73c8" stroke-width="1.1" x1="-69.28203230275508" x2="-69.28203230275508" y1="-40.00000000000001" y2="-40.00000000000001" /></g><g><line stroke="#ff8142" stroke-width="1.1" x1="-69.28203230275508" x2="-69.28203230275508" y1="-40.00000000000001" y2="-40.00000000000001" /></g><g><line stroke="#fdd006" stroke-width="1.1" x1="-69.28203230275508" x2="-69.28203230275508" y1="-40.00000000000001" y2="-40.00000000000001" /></g><g><line stroke="#00b7d6" stroke-width="1.1" x1="-69.28203230275508" x2="-69.28203230275508" y1="-40.00000000000001" y2="-40.00000000000001" /></g><g><line stroke="#49afd9" stroke-width="1.1" x1="-69.28203230275508" x2="-84.87048957087498" y1="-40.00000000000001" y2="-49.000000000000014" /><g><circle cx="-71.01408311032397" cy="-41.00000000000001" fill="#49afd9" fill-opacity="0.7" r="2" stroke="#49afd9" stroke-width="0.1" /></g><g><circle cx="-74.47818472546172" cy="-43.00000000000001" fill="#49afd9" fill-opacity="0.7" r="2" stroke="#49afd9" stroke-width="0.1" /></g><g><circle cx="-77.94228634059948" cy="-45.00000000000001" fill="#49afd9" fill-opacity="0.7" r="2" stroke="#49afd9" stroke-width="0.1" /></g><g><circle cx="-82.27241335952166" cy="-47.50000000000001" fill="#49afd9" fill-opacity="0.7" r="3" stroke="#49afd9" stroke-width="0.1" /><text text-anchor="middle" transform="translate(-82.27241335952166, -47.50000000000001) scale(0.35) rotate(300)">REDES AC (Redes AC) k=3</text></g></g><g><line stroke="#00d4b8" stroke-width="1.1" x1="-110.85125168440814" x2="-110.85125168440814" y1="-64.00000000000001" y2="-64.00000000000001" /></g><g><line stroke="#ff8d55" stroke-width="1.1" x1="34.641016151377535" x2="34.641016151377535" y1="-20.000000000000018" y2="-20.000000000000018" /></g><g><line stroke="#fdd608" stroke-width="1.1" x1="34.641016151377535" x2="34.641016151377535" y1="-20.000000000000018" y2="-20.000000000000018" /></g><g><line stroke="#1cd9c0" stroke-width="1.1" x1="34.641016151377535" x2="38.10511776651529" y1="-20.000000000000018" y2="-22.00000000000002" /><g><circle cx="36.37306695894641" cy="-21.000000000000018" fill="#1cd9c0" fill-opacity="0.7" r="2" stroke="#1cd9c0" stroke-width="0.1" /></g></g><g><line stroke="#1bc0db" stroke-width="1.1" x1="64.08587988004844" x2="64.08587988004844" y1="-37.000000000000036" y2="-37.000000000000036" /></g><g><line stroke="#68bcdc" stroke-width="1.1" x1="64.08587988004844" x2="64.08587988004844" y1="-37.000000000000036" y2="-37.000000000000036" /></g><g><line stroke="#68bcdc" stroke-width="1.1" x1="64.08587988004844" x2="64.08587988004844" y1="-37.000000000000036" y2="-37.000000000000036" /></g><g><line stroke="#ff8d55" stroke-width="1.1" x1="64.08587988004844" x2="64.08587988004844" y1="-37.000000000000036" y2="-37.000000000000036" /></g><g><line stroke="#fdd608" stroke-width="1.1" x1="64.08587988004844" x2="71.01408311032395" y1="-37.000000000000036" y2="-41.000000000000036" /><g><circle cx="67.54998149518619" cy="-39.000000000000036" fill="#fdd608" fill-opacity="0.7" r="4" stroke="#fdd608" stroke-width="0.1" /><text text-anchor="middle" transform="translate(67.54998149518619, -39.000000000000036) scale(0.35) rotate(420)">Investigacion tesis doctoral k=4</text></g></g><g><line stroke="#b581ce" stroke-width="1.1" x1="96.9948452238571" x2="96.9948452238571" y1="-56.00000000000005" y2="-56.00000000000005" /></g><g><line stroke="#ff9018" stroke-width="1.1" x1="96.9948452238571" x2="96.9948452238571" y1="-56.00000000000005" y2="-56.00000000000005" /></g><g><line stroke="#68bcdc" stroke-width="1.1" x1="96.9948452238571" x2="96.9948452238571" y1="-56.00000000000005" y2="-56.00000000000005" /></g><g><line stroke="#f78381" stroke-width="1.1" x1="96.9948452238571" x2="96.9948452238571" y1="-56.00000000000005" y2="-56.00000000000005" /></g><g><line stroke="#72be17" stroke-width="1.1" x1="96.9948452238571" x2="96.9948452238571" y1="-56.00000000000005" y2="-56.00000000000005" /></g><g><line stroke="#9096d5" stroke-width="1.1" x1="96.9948452238571" x2="100.45894683899485" y1="-56.00000000000005" y2="-58.00000000000005" /><g><circle cx="98.72689603142598" cy="-57.00000000000005" fill="#9096d5" fill-opacity="0.7" r="2" stroke="#9096d5" stroke-width="0.1" /></g></g><g><line stroke="#1cd9c0" stroke-width="1.1" x1="126.43970895252801" x2="126.43970895252801" y1="-73.00000000000007" y2="-73.00000000000007" /></g><g><line stroke="#f78381" stroke-width="1.1" x1="126.43970895252801" x2="129.90381056766574" y1="-73.00000000000007" y2="-75.00000000000007" /><g><circle cx="128.17175976009688" cy="-74.00000000000007" fill="#f78381" fill-opacity="0.7" r="2" stroke="#f78381" stroke-width="0.1" /></g></g><g><line stroke="#f78381" stroke-width="1.1" x1="155.8845726811989" x2="155.8845726811989" y1="-90.00000000000009" y2="-90.00000000000009" /></g><g><line stroke="#fdd608" stroke-width="1.1" x1="155.8845726811989" x2="159.34867429633667" y1="-90.00000000000009" y2="-92.00000000000009" /><g><circle cx="157.61662348876777" cy="-91.00000000000009" fill="#fdd608" fill-opacity="0.7" r="2" stroke="#fdd608" stroke-width="0.1" /></g></g><g><line stroke="#68bcdc" stroke-width="1.1" x1="185.3294364098698" x2="188.79353802500756" y1="-107.0000000000001" y2="-109.0000000000001" /><g><circle cx="187.0614872174387" cy="-108.0000000000001" fill="#68bcdc" fill-opacity="0.7" r="2" stroke="#68bcdc" stroke-width="0.1" /></g></g><g><line stroke="#f25797" stroke-width="1.1" x1="214.77430013854072" x2="214.77430013854072" y1="-124.00000000000011" y2="-124.00000000000011" /></g><g><line stroke="#ff8d55" stroke-width="1.1" x1="214.77430013854072" x2="214.77430013854072" y1="-124.00000000000011" y2="-124.00000000000011" /></g><g><line stroke="#ff8d55" stroke-width="1.1" x1="214.77430013854072" x2="214.77430013854072" y1="-124.00000000000011" y2="-124.00000000000011" /></g><g><line stroke="#f78381" stroke-width="1.1" x1="214.77430013854072" x2="214.77430013854072" y1="-124.00000000000011" y2="-124.00000000000011" /></g><g><line stroke="#ff9018" stroke-width="1.1" x1="214.77430013854072" x2="214.77430013854072" y1="-124.00000000000011" y2="-124.00000000000011" /></g><g><line stroke="#f25797" stroke-width="1.1" x1="214.77430013854072" x2="214.77430013854072" y1="-124.00000000000011" y2="-124.00000000000011" /></g><g><line stroke="#ff9018" stroke-width="1.1" x1="214.77430013854072" x2="214.77430013854072" y1="-124.00000000000011" y2="-124.00000000000011" /></g></svg>