<?xml version="1.0" encoding="utf-8" ?>
<svg baseProfile="full" height="100%" version="1.1" viewBox="-358.0,-358.0,716,716" width="100%" xmlns="http://www.w3.org/2000/svg" xmlns:ev="http://www.w3.org/2001/xml-events" xmlns:xlink="http://www.w3.org/1999/xlink"><defs /><path d="M 37.23909236273085 -21.500000000000018 C 58.739092362730844 15.739092362730855 67.0 66.99999999999999 4.102566777143633e-15 67.0" fill="none" stroke="#1bc0db" stroke-width="0.5" /><path d="M 51.095498823281865 -29.500000000000025 C 80.59549882328184 21.59549882328187 67.0 66.99999999999999 4.102566777143633e-15 67.0" fill="none" stroke="#1bc0db" stroke-width="0.5" /><path d="M 43.30127018922192 -25.00000000000002 C 68.3012701892219 18.301270189221917 67.0 66.99999999999999 4.102566777143633e-15 67.0" fill="none" stroke="#1bc0db" stroke-width="0.5" /><path d="M 83.13843876330608 -48.00000000000004 C 131.13843876330606 35.138438763306084 67.0 66.99999999999999 4.102566777143633e-15 67.0" fill="none" stroke="#ff8d55" stroke-width="0.5" /><path d="M 112.583302491977 -65.00000000000006 C 177.58330249197695 47.583302491976994 67.0 66.99999999999999 4.102566777143633e-15 67.0" fill="none" stroke="#ff9018" stroke-width="0.5" /><path d="M 142.0281662206479 -82.00000000000007 C 224.02816622064785 60.02816622064789 67.0 66.99999999999999 4.102566777143633e-15 67.0" fill="none" stroke="#fdd608" stroke-width="0.5" /><path d="M 177.53520777580988 -102.50000000000009 C 280.0352077758098 75.03520777580988 67.0 66.99999999999999 4.102566777143633e-15 67.0" fill="none" stroke="#68bcdc" stroke-width="0.5" /><path d="M 171.4730299493188 -99.00000000000009 C 270.47302994931874 72.4730299493188 67.0 66.99999999999999 4.102566777143633e-15 67.0" fill="none" stroke="#68bcdc" stroke-width="0.5" /><path d="M 209.5781477158341 -121.00000000000011 C 330.578147715834 88.57814771583409 67.0 66.99999999999999 4.102566777143633e-15 67.0" fill="none" stroke="#f25797" stroke-width="0.5" /><path d="M 239.023011444505 -138.0000000000001 C 377.0230114445049 101.02301144450499 67.0 66.99999999999999 4.102566777143633e-15 67.0" fill="none" stroke="#f78381" stroke-width="0.5" /><path d="M 268.4678751731759 -155.00000000000014 C 423.4678751731758 113.46787517317588 67.0 66.99999999999999 4.102566777143633e-15 67.0" fill="none" stroke="#72be17" stroke-width="0.5" /><path d="M 271.93197678831365 -157.00000000000014 C 428.9319767883136 114.93197678831362 67.0 66.99999999999999 4.102566777143633e-15 67.0" fill="none" stroke="#72be17" stroke-width="0.5" /><path d="M 275.3960784034514 -159.00000000000014 C 434.39607840345127 116.39607840345141 67.0 66.99999999999999 4.102566777143633e-15 67.0" fill="none" stroke="#72be17" stroke-width="0.5" /><path d="M 280.592230826158 -162.00000000000014 C 442.5922308261579 118.59223082615804 67.0 66.99999999999999 4.102566777143633e-15 67.0" fill="none" stroke="#72be17" stroke-width="0.5" /><path d="M 4.102566777143633e-15 67.0 C -67.0 67.00000000000001 -57.37306695894641 15.37306695894642 -36.373066958946424 -21.000000000000004" fill="none" stroke="#00b7d6" stroke-width="0.5" /><path d="M 4.102566777143633e-15 67.0 C -67.0 67.00000000000001 -64.20319397786861 17.20319397786862 -40.703193977868615 -23.500000000000004" fill="none" stroke="#00b7d6" stroke-width="0.5" /><path d="M 4.102566777143633e-15 67.0 C -67.0 67.00000000000001 -72.39934640057524 19.399346400575247 -45.89934640057525 -26.500000000000007" fill="none" stroke="#00b7d6" stroke-width="0.5" /><path d="M 4.102566777143633e-15 67.0 C -67.0 67.00000000000001 -81.96152422706629 21.961524227066313 -51.96152422706631 -30.000000000000007" fill="none" stroke="#00b7d6" stroke-width="0.5" /><path d="M 4.102566777143633e-15 67.0 C -67.0 67.00000000000001 -131.13843876330608 35.1384387633061 -83.13843876330611 -48.000000000000014" fill="none" stroke="#ff8142" stroke-width="0.5" /><path d="M 4.102566777143633e-15 67.0 C -67.0 67.00000000000001 -136.60254037844385 36.60254037844386 -86.60254037844386 -50.000000000000014" fill="none" stroke="#ff8142" stroke-width="0.5" /><path d="M 4.102566777143633e-15 67.0 C -67.0 67.00000000000001 -189.87753112603696 50.87753112603697 -120.37753112603697 -69.50000000000001" fill="none" stroke="#f76f6c" stroke-width="0.5" /><path d="M 4.102566777143633e-15 67.0 C -67.0 67.00000000000001 -183.04740410711474 49.04740410711477 -116.04740410711477 -67.00000000000001" fill="none" stroke="#f76f6c" stroke-width="0.5" /><path d="M 4.102566777143633e-15 67.0 C -67.0 67.00000000000001 -262.27687752661217 70.2768775266122 -166.27687752661222 -96.00000000000003" fill="none" stroke="#838acf" stroke-width="0.5" /><path d="M 4.102566777143633e-15 67.0 C -67.0 67.00000000000001 -244.51854727741448 65.51854727741453 -155.0185472774145 -89.50000000000001" fill="none" stroke="#838acf" stroke-width="0.5" /><path d="M 4.102566777143633e-15 67.0 C -67.0 67.00000000000001 -274.5711061606721 73.57110616067214 -174.07110616067214 -100.50000000000003" fill="none" stroke="#838acf" stroke-width="0.5" /><path d="M 4.102566777143633e-15 67.0 C -67.0 67.00000000000001 -252.71469970012112 67.71469970012116 -160.21469970012114 -92.50000000000001" fill="none" stroke="#838acf" stroke-width="0.5" /><path d="M 4.102566777143633e-15 67.0 C -67.0 67.00000000000001 -237.68842025849227 63.688420258492314 -150.68842025849233 -87.00000000000001" fill="none" stroke="#838acf" stroke-width="0.5" /><path d="M -40.703193977868615 -23.500000000000004 C -17.20319397786861 -64.20319397786862 21.59549882328184 -80.59549882328189 51.095498823281865 -29.500000000000025" fill="none" stroke="#00b7d6" stroke-width="0.5" /><path d="M -36.373066958946424 -21.000000000000004 C -15.37306695894642 -57.373066958946424 35.13843876330604 -131.1384387633061 83.13843876330608 -48.00000000000004" fill="none" stroke="#00b7d6" stroke-width="0.5" /><path d="M -51.96152422706631 -30.000000000000007 C -21.961524227066306 -81.96152422706632 47.58330249197694 -177.58330249197707 112.583302491977 -65.00000000000006" fill="none" stroke="#00b7d6" stroke-width="0.5" /><path d="M -45.89934640057525 -26.500000000000007 C -19.39934640057524 -72.39934640057525 72.47302994931871 -270.47302994931886 171.4730299493188 -99.00000000000009" fill="none" stroke="#00b7d6" stroke-width="0.5" /><path d="M -40.703193977868615 -23.500000000000004 C -17.20319397786861 -64.20319397786862 113.46787517317577 -423.467875173176 268.4678751731759 -155.00000000000014" fill="none" stroke="#00b7d6" stroke-width="0.5" /><path d="M -45.89934640057525 -26.500000000000007 C -19.39934640057524 -72.39934640057525 114.9319767883135 -428.9319767883138 271.93197678831365 -157.00000000000014" fill="none" stroke="#00b7d6" stroke-width="0.5" /><path d="M -51.96152422706631 -30.000000000000007 C -21.961524227066306 -81.96152422706632 116.39607840345124 -434.3960784034515 275.3960784034514 -159.00000000000014" fill="none" stroke="#00b7d6" stroke-width="0.5" /><path d="M -51.96152422706631 -30.000000000000007 C -21.961524227066306 -81.96152422706632 118.59223082615787 -442.59223082615813 280.592230826158 -162.00000000000014" fill="none" stroke="#00b7d6" stroke-width="0.5" /><path d="M -83.13843876330611 -48.000000000000014 C -35.1384387633061 -131.1384387633061 75.0352077758098 -280.03520777580997 177.53520777580988 -102.50000000000009" fill="none" stroke="#ff8142" stroke-width="0.5" /><path d="M -86.60254037844386 -50.000000000000014 C -36.60254037844385 -136.60254037844388 75.0352077758098 -280.03520777580997 177.53520777580988 -102.50000000000009" fill="none" stroke="#ff8142" stroke-width="0.5" /><path d="M -120.37753112603697 -69.50000000000001 C -50.877531126036956 -189.87753112603698 18.301270189221896 -68.30127018922194 43.30127018922192 -25.00000000000002" fill="none" stroke="#f76f6c" stroke-width="0.5" /><path d="M -120.37753112603697 -69.50000000000001 C -50.877531126036956 -189.87753112603698 75.0352077758098 -280.03520777580997 177.53520777580988 -102.50000000000009" fill="none" stroke="#f76f6c" stroke-width="0.5" /><path d="M -116.04740410711477 -67.00000000000001 C -49.04740410711476 -183.0474041071148 75.0352077758098 -280.03520777580997 177.53520777580988 -102.50000000000009" fill="none" stroke="#f76f6c" stroke-width="0.5" /><path d="M -166.27687752661222 -96.00000000000003 C -70.2768775266122 -262.2768775266122 15.739092362730833 -58.73909236273087 37.23909236273085 -21.500000000000018" fill="none" stroke="#838acf" stroke-width="0.5" /><path d="M -166.27687752661222 -96.00000000000003 C -70.2768775266122 -262.2768775266122 21.59549882328184 -80.59549882328189 51.095498823281865 -29.500000000000025" fill="none" stroke="#838acf" stroke-width="0.5" /><path d="M -155.0185472774145 -89.50000000000001 C -65.5185472774145 -244.51854727741454 15.739092362730833 -58.73909236273087 37.23909236273085 -21.500000000000018" fill="none" stroke="#838acf" stroke-width="0.5" /><path d="M -155.0185472774145 -89.50000000000001 C -65.5185472774145 -244.51854727741454 21.59549882328184 -80.59549882328189 51.095498823281865 -29.500000000000025" fill="none" stroke="#838acf" stroke-width="0.5" /><path d="M -174.07110616067214 -100.50000000000003 C -73.57110616067212 -274.5711061606722 21.59549882328184 -80.59549882328189 51.095498823281865 -29.500000000000025" fill="none" stroke="#838acf" stroke-width="0.5" /><path d="M -160.21469970012114 -92.50000000000001 C -67.71469970012113 -252.71469970012117 18.301270189221896 -68.30127018922194 43.30127018922192 -25.00000000000002" fill="none" stroke="#838acf" stroke-width="0.5" /><path d="M -150.68842025849233 -87.00000000000001 C -63.688420258492314 -237.68842025849233 18.301270189221896 -68.30127018922194 43.30127018922192 -25.00000000000002" fill="none" stroke="#838acf" stroke-width="0.5" /><path d="M -166.27687752661222 -96.00000000000003 C -70.2768775266122 -262.2768775266122 60.02816622064783 -224.02816622064796 142.0281662206479 -82.00000000000007" fill="none" stroke="#838acf" stroke-width="0.5" /><path d="M -174.07110616067214 -100.50000000000003 C -73.57110616067212 -274.5711061606722 88.57814771583398 -330.57814771583423 209.5781477158341 -121.00000000000011" fill="none" stroke="#838acf" stroke-width="0.5" /><path d="M -174.07110616067214 -100.50000000000003 C -73.57110616067212 -274.5711061606722 101.02301144450487 -377.0230114445051 239.023011444505 -138.0000000000001" fill="none" stroke="#838acf" stroke-width="0.5" /><path d="M -174.07110616067214 -100.50000000000003 C -73.57110616067212 -274.5711061606722 118.59223082615787 -442.59223082615813 280.592230826158 -162.00000000000014" fill="none" stroke="#838acf" stroke-width="0.5" /><path d="M -160.21469970012114 -92.50000000000001 C -67.71469970012113 -252.71469970012117 118.59223082615787 -442.59223082615813 280.592230826158 -162.00000000000014" fill="none" stroke="#838acf" stroke-width="0.5" /><g><line stroke="#b2df8a" stroke-width="1.1" x1="2.4492935982947065e-15" x2="5.75583995599256e-15" y1="40.0" y2="94.0" /><g><circle cx="4.102566777143633e-15" cy="67.0" fill="blue" fill-opacity="0.7" r="27" stroke="blue" stroke-width="0.1" /><text text-anchor="middle" transform="translate(4.102566777143633e-15, 67.0) scale(0.6) rotate(0)">TL001 "Rabanuculus" (UNAM-LANCIS) k=27</text></g></g><g><line stroke="#00b7d6" stroke-width="1.1" x1="-34.64101615137754" x2="-55.42562584220407" y1="-20.000000000000004" y2="-32.00000000000001" /><g><circle cx="-36.373066958946424" cy="-21.000000000000004" fill="#00b7d6" fill-opacity="0.7" r="2" stroke="#00b7d6" stroke-width="0.1" /></g><g><circle cx="-40.703193977868615" cy="-23.500000000000004" fill="#00b7d6" fill-opacity="0.7" r="3" stroke="#00b7d6" stroke-width="0.1" /><text text-anchor="middle" transform="translate(-40.703193977868615, -23.500000000000004) scale(0.35) rotate(300)">Daniel Revollo (UAM) k=3</text></g><g><circle cx="-45.89934640057525" cy="-26.500000000000007" fill="#00b7d6" fill-opacity="0.7" r="3" stroke="#00b7d6" stroke-width="0.1" /><text text-anchor="middle" transform="translate(-45.89934640057525, -26.500000000000007) scale(0.35) rotate(300)">Luis Zambrano (UNAM-IB) k=3</text></g><g><circle cx="-51.96152422706631" cy="-30.000000000000007" fill="#00b7d6" fill-opacity="0.7" r="4" stroke="#00b7d6" stroke-width="0.1" /><text text-anchor="middle" transform="translate(-51.96152422706631, -30.000000000000007) scale(0.35) rotate(300)">UNAM-LANCIS k=4</text></g></g><g><line stroke="#ff8142" stroke-width="1.1" x1="-81.40638795573723" x2="-88.33459118601273" y1="-47.00000000000001" y2="-51.000000000000014" /><g><circle cx="-83.13843876330611" cy="-48.000000000000014" fill="#ff8142" fill-opacity="0.7" r="2" stroke="#ff8142" stroke-width="0.1" /></g><g><circle cx="-86.60254037844386" cy="-50.000000000000014" fill="#ff8142" fill-opacity="0.7" r="2" stroke="#ff8142" stroke-width="0.1" /></g></g><g><line stroke="#ad73c8" stroke-width="1.1" x1="-114.31535329954589" x2="-114.31535329954589" y1="-66.00000000000001" y2="-66.00000000000001" /></g><g><line stroke="#f1428a" stroke-width="1.1" x1="-114.31535329954589" x2="-114.31535329954589" y1="-66.00000000000001" y2="-66.00000000000001" /></g><g><line stroke="#f76f6c" stroke-width="1.1" x1="-114.31535329954589" x2="-122.97560733739029" y1="-66.00000000000001" y2="-71.00000000000001" /><g><circle cx="-116.04740410711477" cy="-67.00000000000001" fill="#f76f6c" fill-opacity="0.7" r="2" stroke="#f76f6c" stroke-width="0.1" /></g><g><circle cx="-120.37753112603697" cy="-69.50000000000001" fill="#f76f6c" fill-opacity="0.7" r="3" stroke="#f76f6c" stroke-width="0.1" /><text text-anchor="middle" transform="translate(-120.37753112603697, -69.50000000000001) scale(0.35) rotate(300)">HSBC k=3</text></g></g><g><line stroke="#838acf" stroke-width="1.1" x1="-148.95636945092343" x2="-178.40123317959436" y1="-86.00000000000001" y2="-103.00000000000003" /><g><circle cx="-150.68842025849233" cy="-87.00000000000001" fill="#838acf" fill-opacity="0.7" r="2" stroke="#838acf" stroke-width="0.1" /></g><g><circle cx="-155.0185472774145" cy="-89.50000000000001" fill="#838acf" fill-opacity="0.7" r="3" stroke="#838acf" stroke-width="0.1" /><text text-anchor="middle" transform="translate(-155.0185472774145, -89.50000000000001) scale(0.35) rotate(300)">Productores San Gregorio k=3</text></g><g><circle cx="-160.21469970012114" cy="-92.50000000000001" fill="#838acf" fill-opacity="0.7" r="3" stroke="#838acf" stroke-width="0.1" /><text text-anchor="middle" transform="translate(-160.21469970012114, -92.50000000000001) scale(0.35) rotate(300)">Earthwatch k=3</text></g><g><circle cx="-166.27687752661222" cy="-96.00000000000003" fill="#838acf" fill-opacity="0.7" r="4" stroke="#838acf" stroke-width="0.1" /><text text-anchor="middle" transform="translate(-166.27687752661222, -96.00000000000003) scale(0.35) rotate(300)">Productores Xochimilco k=4</text></g><g><circle cx="-174.07110616067214" cy="-100.50000000000003" fill="#838acf" fill-opacity="0.7" r="5" stroke="#838acf" stroke-width="0.1" /><text text-anchor="middle" transform="translate(-174.07110616067214, -100.50000000000003) scale(0.35) rotate(300)">REDES AC (Redes AC) k=5</text></g></g><g><line stroke="#60b515" stroke-width="1.1" x1="-204.38199529312752" x2="-204.38199529312752" y1="-118.00000000000003" y2="-118.00000000000003" /></g><g><line stroke="#1bc0db" stroke-width="1.1" x1="34.641016151377535" x2="55.425625842204056" y1="-20.000000000000018" y2="-32.00000000000003" /><g><circle cx="37.23909236273085" cy="-21.500000000000018" fill="#1bc0db" fill-opacity="0.7" r="3" stroke="#1bc0db" stroke-width="0.1" /><text text-anchor="middle" transform="translate(37.23909236273085, -21.500000000000018) scale(0.35) rotate(420)">Capacitacion monitoreo ambiental k=3</text></g><g><circle cx="43.30127018922192" cy="-25.00000000000002" fill="#1bc0db" fill-opacity="0.7" r="4" stroke="#1bc0db" stroke-width="0.1" /><text text-anchor="middle" transform="translate(43.30127018922192, -25.00000000000002) scale(0.35) rotate(420)">Proyecto capacitacion ciencia ciudadana k=4</text></g><g><circle cx="51.095498823281865" cy="-29.500000000000025" fill="#1bc0db" fill-opacity="0.7" r="5" stroke="#1bc0db" stroke-width="0.1" /><text text-anchor="middle" transform="translate(51.095498823281865, -29.500000000000025) scale(0.35) rotate(420)">Capacitacion manejo sostenible de chinampa k=5</text></g></g><g><line stroke="#f25797" stroke-width="1.1" x1="81.4063879557372" x2="81.4063879557372" y1="-47.00000000000004" y2="-47.00000000000004" /></g><g><line stroke="#ff8d55" stroke-width="1.1" x1="81.4063879557372" x2="84.87048957087497" y1="-47.00000000000004" y2="-49.00000000000004" /><g><circle cx="83.13843876330608" cy="-48.00000000000004" fill="#ff8d55" fill-opacity="0.7" r="2" stroke="#ff8d55" stroke-width="0.1" /></g></g><g><line stroke="#f78381" stroke-width="1.1" x1="110.85125168440811" x2="110.85125168440811" y1="-64.00000000000006" y2="-64.00000000000006" /></g><g><line stroke="#72be17" stroke-width="1.1" x1="110.85125168440811" x2="110.85125168440811" y1="-64.00000000000006" y2="-64.00000000000006" /></g><g><line stroke="#ff8d55" stroke-width="1.1" x1="110.85125168440811" x2="110.85125168440811" y1="-64.00000000000006" y2="-64.00000000000006" /></g><g><line stroke="#1bc0db" stroke-width="1.1" x1="110.85125168440811" x2="110.85125168440811" y1="-64.00000000000006" y2="-64.00000000000006" /></g><g><line stroke="#ff9018" stroke-width="1.1" x1="110.85125168440811" x2="114.31535329954586" y1="-64.00000000000006" y2="-66.00000000000006" /><g><circle cx="112.583302491977" cy="-65.00000000000006" fill="#ff9018" fill-opacity="0.7" r="2" stroke="#ff9018" stroke-width="0.1" /></g></g><g><line stroke="#fdd608" stroke-width="1.1" x1="140.296115413079" x2="143.76021702821677" y1="-81.00000000000007" y2="-83.00000000000007" /><g><circle cx="142.0281662206479" cy="-82.00000000000007" fill="#fdd608" fill-opacity="0.7" r="2" stroke="#fdd608" stroke-width="0.1" /></g></g><g><line stroke="#68bcdc" stroke-width="1.1" x1="169.74097914174993" x2="181.86533479473206" y1="-98.00000000000009" y2="-105.0000000000001" /><g><circle cx="171.4730299493188" cy="-99.00000000000009" fill="#68bcdc" fill-opacity="0.7" r="2" stroke="#68bcdc" stroke-width="0.1" /></g><g><circle cx="177.53520777580988" cy="-102.50000000000009" fill="#68bcdc" fill-opacity="0.7" r="5" stroke="#68bcdc" stroke-width="0.1" /><text text-anchor="middle" transform="translate(177.53520777580988, -102.50000000000009) scale(0.35) rotate(420)">Apoyo financiamiento k=5</text></g></g><g><line stroke="#1cd9c0" stroke-width="1.1" x1="207.84609690826522" x2="207.84609690826522" y1="-120.00000000000011" y2="-120.00000000000011" /></g><g><line stroke="#68bcdc" stroke-width="1.1" x1="207.84609690826522" x2="207.84609690826522" y1="-120.00000000000011" y2="-120.00000000000011" /></g><g><line stroke="#1bc0db" stroke-width="1.1" x1="207.84609690826522" x2="207.84609690826522" y1="-120.00000000000011" y2="-120.00000000000011" /></g><g><line stroke="#f25797" stroke-width="1.1" x1="207.84609690826522" x2="211.31019852340296" y1="-120.00000000000011" y2="-122.00000000000011" /><g><circle cx="209.5781477158341" cy="-121.00000000000011" fill="#f25797" fill-opacity="0.7" r="2" stroke="#f25797" stroke-width="0.1" /></g></g><g><line stroke="#1bc0db" stroke-width="1.1" x1="237.29096063693612" x2="237.29096063693612" y1="-137.0000000000001" y2="-137.0000000000001" /></g><g><line stroke="#f78381" stroke-width="1.1" x1="237.29096063693612" x2="240.75506225207386" y1="-137.0000000000001" y2="-139.0000000000001" /><g><circle cx="239.023011444505" cy="-138.0000000000001" fill="#f78381" fill-opacity="0.7" r="2" stroke="#f78381" stroke-width="0.1" /></g></g><g><line stroke="#1cd9c0" stroke-width="1.1" x1="266.735824365607" x2="266.735824365607" y1="-154.00000000000014" y2="-154.00000000000014" /></g><g><line stroke="#72be17" stroke-width="1.1" x1="266.735824365607" x2="284.0563324412958" y1="-154.00000000000014" y2="-164.00000000000014" /><g><circle cx="268.4678751731759" cy="-155.00000000000014" fill="#72be17" fill-opacity="0.7" r="2" stroke="#72be17" stroke-width="0.1" /></g><g><circle cx="271.93197678831365" cy="-157.00000000000014" fill="#72be17" fill-opacity="0.7" r="2" stroke="#72be17" stroke-width="0.1" /></g><g><circle cx="275.3960784034514" cy="-159.00000000000014" fill="#72be17" fill-opacity="0.7" r="2" stroke="#72be17" stroke-width="0.1" /></g><g><circle cx="280.592230826158" cy="-162.00000000000014" fill="#72be17" fill-opacity="0.7" r="4" stroke="#72be17" stroke-width="0.1" /><text text-anchor="middle" transform="translate(280.592230826158, -162.00000000000014) scale(0.35) rotate(420)">Investigacion calidad agua k=4</text></g></g><g><line stroke="#fdd608" stroke-width="1.1" x1="310.0370945548289" x2="310.0370945548289" y1="-179.00000000000017" y2="-179.00000000000017" /></g><g><line stroke="#ff8d55" stroke-width="1.1" x1="310.0370945548289" x2="310.0370945548289" y1="-179.00000000000017" y2="-179.00000000000017" /></g><g><line stroke="#1cd9c0" stroke-width="1.1" x1="310.0370945548289" x2="310.0370945548289" y1="-179.00000000000017" y2="-179.00000000000017" /></g><g><line stroke="#ff8d55" stroke-width="1.1" x1="310.0370945548289" x2="310.0370945548289" y1="-179.00000000000017" y2="-179.00000000000017" /></g><g><line stroke="#f78381" stroke-width="1.1" x1="310.0370945548289" x2="310.0370945548289" y1="-179.00000000000017" y2="-179.00000000000017" /></g><g><line stroke="#1cd9c0" stroke-width="1.1" x1="310.0370945548289" x2="310.0370945548289" y1="-179.00000000000017" y2="-179.00000000000017" /></g><g><line stroke="#f78381" stroke-width="1.1" x1="310.0370945548289" x2="310.0370945548289" y1="-179.00000000000017" y2="-179.00000000000017" /></g><g><line stroke="#f78381" stroke-width="1.1" x1="310.0370945548289" x2="310.0370945548289" y1="-179.00000000000017" y2="-179.00000000000017" /></g></svg>